<svg xmlns="http://www.w3.org/2000/svg" viewBox="0 0 1200 630" shape-rendering="geometricPrecision" role="img" aria-label="Polkadot Cookbook — Practical, tested recipes for building on Polkadot.">
  <!-- Generated by .claude/skills/branding/generate.py. DO NOT EDIT.
       variant-05 strict: pink slab + accent-panel with Cookbook network
       mark + footer surface. Evergreen (no version / counts). -->
  <rect width="1200" height="630" fill="#FFFFFF"/>

  <!-- B1 pink identity slab -->
  <rect x="0" y="0" width="800" height="540" fill="#E6007A"/>
  <text x="80" y="240" font-family="ui-monospace, Menlo, Consolas, 'Courier New', monospace" font-size="108" font-weight="700" fill="#000000" letter-spacing="-2">POLKADOT</text>
  <text x="80" y="350" font-family="ui-monospace, Menlo, Consolas, 'Courier New', monospace" font-size="108" font-weight="700" fill="#000000" letter-spacing="-2">COOKBOOK</text>
  <rect x="80" y="378" width="540" height="4" fill="#000000"/>
  <text x="80" y="424" font-family="ui-monospace, Menlo, Consolas, 'Courier New', monospace" font-size="22" fill="#000000" opacity="0.9">Practical, tested recipes for building on Polkadot.</text>

  <!-- dot CLI footnote (subsidiary) -->
  <g transform="translate(80, 458)">
    <circle cx="8" cy="8" r="8" fill="#000000"/>
    <circle cx="8" cy="8" r="3" fill="#E6007A"/>
    <text x="26" y="13" font-family="ui-monospace, Menlo, Consolas, 'Courier New', monospace" font-size="11" fill="#000000" opacity="0.65" letter-spacing="1.5">DOT CLI · scaffolder included</text>
  </g>

  <!-- B2 accent panel with Cookbook network mark -->
  <rect x="800" y="0" width="400" height="540" fill="#FFFFFF"/>
  <g transform="translate(1000, 270)">
    <g stroke="#E6007A" stroke-width="1.5" opacity="0.3" fill="none">
      <line x1="0"     y1="-45"  x2="0"     y2="-78"/>
      <line x1="31.8"  y1="-31.8" x2="49.5" y2="-52"/>
      <line x1="45"    y1="0"     x2="70"   y2="0"/>
      <line x1="31.8"  y1="31.8"  x2="49.5" y2="52"/>
      <line x1="0"     y1="45"    x2="0"    y2="78"/>
      <line x1="-31.8" y1="31.8"  x2="-49.5" y2="52"/>
      <line x1="-45"   y1="0"     x2="-70"  y2="0"/>
      <line x1="-31.8" y1="-31.8" x2="-49.5" y2="-52"/>
    </g>
    <circle cx="0" cy="0" r="45" fill="#E6007A"/>
    <circle cx="0"     cy="-78"  r="10" fill="#E6007A"/>
    <circle cx="49.5"  cy="-52"  r="10" fill="#E6007A"/>
    <circle cx="70"    cy="0"    r="10" fill="#E6007A"/>
    <circle cx="49.5"  cy="52"   r="10" fill="#E6007A"/>
    <circle cx="0"     cy="78"   r="10" fill="#E6007A"/>
    <circle cx="-49.5" cy="52"   r="10" fill="#E6007A"/>
    <circle cx="-70"   cy="0"    r="10" fill="#E6007A"/>
    <circle cx="-49.5" cy="-52"  r="10" fill="#E6007A"/>
  </g>

  <!-- B3 footer -->
  <rect x="0" y="540" width="1200" height="90" fill="#000000"/>
  <text x="80" y="585" font-family="ui-monospace, Menlo, Consolas, 'Courier New', monospace" font-size="15" fill="#FFFFFF" opacity="0.85" letter-spacing="3">PALLETS · CONTRACTS · TRANSACTIONS · XCM · NETWORKS</text>
  <text x="80" y="612" font-family="ui-monospace, Menlo, Consolas, 'Courier New', monospace" font-size="12" fill="#FFFFFF" opacity="0.6">github.com/polkadot-developers/polkadot-cookbook</text>
  <text x="1120" y="612" font-family="ui-monospace, Menlo, Consolas, 'Courier New', monospace" font-size="11" fill="#FFFFFF" opacity="0.6" text-anchor="end">MIT / Apache-2.0</text>
</svg>
